<?xml version="1.0" encoding="utf-8"?>
<!-- Generator: Adobe Illustrator 26.4.1, SVG Export Plug-In . SVG Version: 6.00 Build 0)  -->
<svg version="1.1" id="Layer_1" xmlns="http://www.w3.org/2000/svg" xmlns:xlink="http://www.w3.org/1999/xlink" x="0px" y="0px"
	 viewBox="0 0 1153 200" style="enable-background:new 0 0 1153 200;" xml:space="preserve">
<style type="text/css">
	.st0{fill:#16202A;}
	.st1{fill:#71C9F8;}
</style>
<g>
	<path class="st0" d="M0,0h200v40.1c-66.7-0.1-133.3,0-200,0V0z"/>
	<path class="st0" d="M0,79.9c66.7,0.2,133.3,0.1,200,0V200H0V79.9z"/>
</g>
<g>
	<path class="st1" d="M0,40.1c66.7,0,133.3,0,200,0v39.8c-66.7,0.1-133.3,0.2-200,0V40.1z"/>
</g>
<g>
	<path class="st0" d="M255.4,142.8c-3.6,0-6.3-1-8.2-2.9c-1.9-2-2.8-4.7-2.8-8.3V61.6c0-3.7,0.9-6.5,2.8-8.6c1.9-2,4.4-3.1,7.6-3.1
		c2.6,0,4.7,0.5,6.3,1.6c1.5,1.1,3.2,2.8,5.1,5.2l40.6,50.7h-3.6V61.1c0-3.5,0.9-6.2,2.8-8.2c1.8-2,4.5-2.9,8.1-2.9s6.3,1,8.2,2.9
		c1.9,2,2.8,4.7,2.8,8.2V132c0,3.2-0.9,5.7-2.6,7.7c-1.8,2-4.1,3-7,3c-2.9,0-5.2-0.5-6.8-1.6c-1.7-1.1-3.5-2.8-5.4-5.2l-40.4-50.8
		h3.6v46.3c0,3.6-0.9,6.4-2.8,8.3C261.6,141.8,258.9,142.8,255.4,142.8z"/>
	<path class="st0" d="M384.9,143c-9.1,0-17.1-2-24-5.9c-6.9-3.9-12.2-9.4-16.1-16.4c-3.9-7-5.8-15.1-5.8-24.4
		c0-7.1,1.1-13.5,3.3-19.1c2.2-5.7,5.3-10.5,9.4-14.6c4.1-4.1,9-7.2,14.6-9.5c5.6-2.3,11.9-3.4,18.7-3.4c9.1,0,17.2,1.9,24.1,5.8
		c6.9,3.9,12.3,9.3,16.1,16.3c3.8,7,5.7,15.1,5.7,24.5c0,7-1.1,13.4-3.3,19.1c-2.2,5.7-5.3,10.6-9.3,14.7c-4.1,4.1-8.9,7.3-14.5,9.5
		C397.9,141.9,391.7,143,384.9,143z M384.9,123.2c4.5,0,8.4-1.1,11.5-3.2c3.2-2.1,5.6-5.2,7.3-9.2c1.7-4,2.6-8.8,2.6-14.5
		c0-8.4-1.9-14.9-5.6-19.6c-3.8-4.7-9-7.1-15.7-7.1c-4.4,0-8.3,1-11.5,3.1c-3.2,2.1-5.7,5.1-7.4,9.2c-1.8,4-2.6,8.8-2.6,14.5
		c0,8.4,1.9,15,5.8,19.8C373,120.8,378.2,123.2,384.9,123.2z"/>
	<path class="st0" d="M478.3,143c-3.5,0-7.1-0.3-10.8-0.8c-3.7-0.5-7.2-1.2-10.6-2.2c-3.4-0.9-6.4-2-9-3.3c-2.3-1.1-3.9-2.6-4.9-4.5
		c-0.9-1.9-1.3-3.8-1-5.8c0.3-2,1-3.8,2.2-5.4c1.2-1.6,2.8-2.6,4.7-3.2c2-0.6,4.2-0.3,6.7,0.8c3.2,1.5,6.9,2.8,11,3.6
		s8,1.3,11.6,1.3c5.5,0,9.5-0.8,11.7-2.4c2.3-1.6,3.4-3.4,3.4-5.6c0-2-0.8-3.5-2.4-4.7c-1.6-1.2-4.4-2.2-8.4-3.1l-15-3.2
		c-8.3-1.8-14.4-4.8-18.4-9c-4-4.2-6-9.7-6-16.4c0-4.5,0.9-8.6,2.8-12.2c1.9-3.6,4.5-6.7,7.8-9.2c3.3-2.6,7.3-4.6,12-6
		c4.7-1.4,9.9-2.2,15.5-2.2c4.4,0,8.9,0.5,13.5,1.5c4.6,1,8.5,2.5,11.8,4.5c2,1,3.4,2.5,4.3,4.3c0.9,1.8,1.2,3.7,1,5.6
		c-0.2,1.9-0.9,3.5-2,5c-1.2,1.5-2.7,2.4-4.6,2.9c-1.9,0.5-4.2,0.2-6.8-1c-2.6-1.1-5.4-2-8.4-2.6c-3.1-0.6-6.1-0.9-9-0.9
		c-3.2,0-5.8,0.4-8.1,1.2c-2.2,0.8-3.9,1.8-5.1,3.2c-1.2,1.4-1.7,2.9-1.7,4.7s0.8,3.3,2.3,4.5c1.5,1.2,4.3,2.2,8.2,3l14.8,3.2
		c8.3,1.8,14.5,4.8,18.6,8.9c4.1,4.1,6.1,9.5,6.1,16.1c0,4.4-0.9,8.4-2.7,12c-1.8,3.5-4.4,6.6-7.7,9.2c-3.4,2.6-7.4,4.6-12,6
		C489.4,142.3,484.1,143,478.3,143z"/>
	<path class="st0" d="M559.2,142.8c-3.8,0-6.8-1.1-8.8-3.2c-2-2.1-3.1-5.1-3.1-8.8V70.5h-20.1c-3.2,0-5.6-0.9-7.2-2.6
		c-1.7-1.7-2.5-4.1-2.5-7.2c0-3.1,0.8-5.4,2.5-7c1.7-1.6,4.1-2.4,7.2-2.4H591c3.2,0,5.7,0.8,7.3,2.4c1.6,1.6,2.4,4,2.4,7
		c0,3.2-0.8,5.6-2.4,7.2c-1.6,1.7-4.1,2.5-7.3,2.5h-20.1v60.3c0,3.8-1,6.7-2.9,8.8C566,141.7,563.1,142.8,559.2,142.8z"/>
	<path class="st0" d="M620.4,142.8c-3.8,0-6.8-1.1-8.8-3.2c-2-2.1-3.1-5.1-3.1-8.8V63.3c0-3.9,1-6.9,3.1-9c2.1-2,5.1-3.1,8.9-3.1
		H652c10.2,0,18,2.5,23.6,7.5c5.5,5,8.3,11.9,8.3,20.8c0,5.8-1.2,10.8-3.7,15c-2.5,4.2-6.1,7.4-10.9,9.7c-4.8,2.3-10.5,3.4-17.3,3.4
		l0.9-2.3h6.3c3.6,0,6.8,0.9,9.6,2.6c2.8,1.8,5.2,4.4,7,8l6.3,11.5c1.5,2.6,2.1,5,2,7.3c-0.1,2.3-1,4.2-2.7,5.8s-4.2,2.3-7.7,2.3
		c-3.2,0-5.9-0.7-8-2c-2.1-1.4-3.9-3.5-5.6-6.4l-11.6-21.6c-1-1.8-2.3-3.1-3.9-3.8c-1.6-0.7-3.4-1.1-5.4-1.1h-7v22.9
		c0,3.8-1,6.7-3,8.8C627,141.7,624.2,142.8,620.4,142.8z M632.1,91.2h15.6c4.5,0,8-0.9,10.3-2.7c2.3-1.8,3.5-4.5,3.5-8.2
		c0-3.8-1.2-6.5-3.5-8.3c-2.3-1.8-5.8-2.7-10.3-2.7h-15.6V91.2z"/>
	<path class="st0" d="M781.2,143c-10,0-18.6-1.9-25.7-5.8c-7.2-3.9-12.7-9.3-16.6-16.3c-3.9-7-5.8-15.2-5.8-24.6
		c0-7.1,1.1-13.5,3.3-19.1c2.2-5.7,5.4-10.5,9.5-14.6c4.2-4.1,9.2-7.2,15.2-9.5c5.9-2.3,12.6-3.4,20.2-3.4c3.8,0,7.9,0.5,12.1,1.4
		c4.2,0.9,8,2.3,11.2,4c2.5,1.3,4.2,2.9,5.1,4.9c0.9,2,1.2,4.1,0.9,6.1c-0.3,2.1-1,3.9-2.2,5.5c-1.2,1.6-2.7,2.7-4.6,3.3
		c-1.9,0.6-4,0.3-6.3-0.9c-2.5-1.3-5-2.2-7.6-2.8c-2.6-0.6-5.2-0.8-7.9-0.8c-5.2,0-9.6,1-13.1,3c-3.5,2-6.2,4.9-8,8.7
		c-1.8,3.8-2.7,8.5-2.7,14.1c0,5.6,0.9,10.4,2.7,14.2s4.5,6.8,8,8.8c3.5,2,7.9,3,13.1,3c2.4,0,4.8-0.3,7.4-0.8
		c2.5-0.5,5-1.4,7.5-2.6c2.5-1.1,4.7-1.4,6.8-1c2,0.5,3.7,1.5,4.9,3.1c1.2,1.6,2,3.4,2.4,5.4c0.3,2,0.1,4-0.8,6
		c-0.9,2-2.5,3.5-4.7,4.7c-3,1.8-6.7,3.2-11.1,4.3C789.8,142.5,785.4,143,781.2,143z"/>
	<path class="st0" d="M845.9,143c-8.3,0-14.3-2.2-18.2-6.7c-3.8-4.4-5.8-11.1-5.8-20V61.5c0-3.7,1-6.5,2.9-8.5c1.9-2,4.8-3,8.5-3
		c3.6,0,6.4,1,8.4,3c2,2,3,4.8,3,8.5v54.1c0,3.2,0.6,5.5,1.9,6.9c1.2,1.5,2.8,2.2,4.8,2.2c0.6,0,1.2-0.1,1.9-0.2
		c0.6-0.1,1.3-0.2,2-0.2c1.5-0.1,2.7,0.4,3.4,1.5c0.7,1.1,1.1,3.4,1.1,6.8c0,3-0.6,5.2-1.8,6.7c-1.2,1.5-3,2.4-5.4,2.9
		c-0.8,0.1-1.8,0.2-3.1,0.4C848.2,142.9,847.1,143,845.9,143z"/>
	<path class="st0" d="M877.9,68.3c-4.1,0-7.3-0.9-9.5-2.8c-2.2-1.9-3.3-4.6-3.3-8.1c0-3.6,1.1-6.3,3.3-8.2c2.2-1.9,5.4-2.8,9.5-2.8
		c4,0,7.1,0.9,9.3,2.8c2.2,1.9,3.3,4.6,3.3,8.2c0,3.5-1.1,6.2-3.3,8.1C885.1,67.3,882,68.3,877.9,68.3z M877.9,142.5
		c-3.8,0-6.6-1-8.5-3.1c-1.9-2.1-2.9-5.1-2.9-9.2V89.7c0-4,1-7.1,2.9-9.2c1.9-2.1,4.8-3.1,8.5-3.1c3.6,0,6.4,1,8.4,3.1
		c2,2.1,3,5.1,3,9.2v40.6c0,4-1,7.1-2.9,9.2C884.4,141.5,881.6,142.5,877.9,142.5z"/>
	<path class="st0" d="M936.8,143c-7.7,0-14.3-1.4-19.9-4.1c-5.6-2.7-9.9-6.6-12.9-11.5c-3-4.9-4.5-10.8-4.5-17.4
		c0-6.5,1.4-12.2,4.3-17.2c2.9-4.9,6.8-8.8,11.8-11.6c5-2.8,10.7-4.2,17.1-4.2c4.7,0,9,0.8,12.8,2.3s7.1,3.7,9.8,6.6
		c2.7,2.9,4.8,6.3,6.2,10.3c1.4,4,2.2,8.5,2.2,13.6c0,1.6-0.5,2.9-1.4,3.7c-0.9,0.9-2.4,1.3-4.4,1.3h-39.3v-10.9h28.3l-1.9,1.7
		c0-3.2-0.4-5.7-1.3-7.7c-0.9-2-2.1-3.5-3.8-4.5c-1.7-1-3.7-1.5-6.2-1.5c-2.6,0-5,0.6-6.9,1.9c-2,1.2-3.4,3.1-4.4,5.4
		c-1,2.4-1.5,5.4-1.5,9v1c0,6.1,1.3,10.5,4,13.1s6.8,3.8,12.5,3.8c1.9,0,4-0.2,6.5-0.6c2.4-0.4,4.8-1.1,7-1.9c2.2-0.9,4.1-1,5.8-0.4
		c1.6,0.6,2.9,1.5,3.8,2.8c0.9,1.3,1.4,2.8,1.5,4.5c0.1,1.8-0.3,3.4-1.2,4.9s-2.4,2.7-4.4,3.6c-2.9,1.4-6,2.4-9.4,3.1
		C943.6,142.7,940.2,143,936.8,143z"/>
	<path class="st0" d="M985,142.8c-3.8,0-6.6-1-8.5-3s-2.9-4.8-2.9-8.5V88.8c0-3.7,1-6.5,2.9-8.5c1.9-2,4.7-3,8.3-3
		c3.5,0,6.2,1,8.1,3c1.9,2,2.9,4.8,2.9,8.5v6l-1.4-5.2c2-4,5-7.1,8.8-9.3c3.8-2.2,8.1-3.3,13-3.3c5,0,9.2,1,12.4,3
		c3.2,2,5.7,5,7.3,9c1.6,4,2.4,9.1,2.4,15.3v27c0,3.7-1,6.5-2.9,8.5c-2,2-4.8,3-8.4,3c-3.7,0-6.5-1-8.4-3c-2-2-2.9-4.8-2.9-8.5
		v-26.1c0-3.8-0.7-6.5-2-8.1c-1.3-1.7-3.3-2.5-5.8-2.5c-3.4,0-6.1,1.1-8.2,3.3c-2,2.2-3.1,5.1-3.1,8.8v24.7
		C996.3,138.9,992.5,142.8,985,142.8z"/>
	<path class="st0" d="M1084.2,143c-6.3,0-11.6-1-15.7-3c-4.2-2-7.3-5-9.3-9c-2-4-3.1-8.9-3.1-14.9V95.3h-4.2c-2.7,0-4.9-0.7-6.5-2.2
		c-1.6-1.5-2.4-3.5-2.4-6.1c0-2.8,0.8-4.9,2.4-6.3c1.6-1.4,3.7-2.1,6.5-2.1h4.2v-8.1c0-3.7,1-6.5,2.9-8.5c2-2,4.8-3,8.4-3
		c3.7,0,6.5,1,8.4,3c2,2,2.9,4.8,2.9,8.5v8.1h10.5c2.7,0,4.9,0.7,6.4,2.1c1.5,1.4,2.3,3.5,2.3,6.3c0,2.6-0.8,4.7-2.3,6.1
		c-1.5,1.5-3.7,2.2-6.4,2.2h-10.5v20.1c0,3.2,0.7,5.5,2.2,7c1.5,1.5,3.8,2.2,7,2.2c1.3,0,2.5-0.1,3.6-0.4c1.1-0.3,2.1-0.4,3.1-0.5
		c1.4,0,2.5,0.4,3.4,1.3c0.9,0.9,1.3,2.9,1.3,6.1c0,2.6-0.4,4.7-1.2,6.5c-0.8,1.8-2.2,3-4.2,3.8c-1.3,0.5-2.9,0.9-4.9,1.2
		C1087.1,142.9,1085.4,143,1084.2,143z"/>
</g>
</svg>
