<?xml version="1.0" encoding="utf-8"?>
<!-- Generator: Adobe Illustrator 26.4.1, SVG Export Plug-In . SVG Version: 6.00 Build 0)  -->
<svg version="1.1" id="Layer_1" xmlns="http://www.w3.org/2000/svg" xmlns:xlink="http://www.w3.org/1999/xlink" x="0px" y="0px"
	 viewBox="0 0 1164.5 200" style="enable-background:new 0 0 1164.5 200;" xml:space="preserve">
<style type="text/css">
	.st0{fill:#6633CC;}
</style>
<g>
	<path class="st0" d="M19.8,161.7c-4.8,0-8.5-1.3-11-4c-2.5-2.6-3.8-6.4-3.8-11.2V52.6c0-4.9,1.3-8.8,3.8-11.5
		c2.5-2.8,5.9-4.1,10.1-4.1c3.6,0,6.4,0.7,8.4,2.1c2.1,1.4,4.4,3.8,6.9,7l54.5,68.1h-4.8V51.9c0-4.7,1.2-8.4,3.7-11
		c2.5-2.6,6.1-4,10.9-4c4.8,0,8.5,1.3,11,4c2.5,2.6,3.8,6.3,3.8,11v95.3c0,4.2-1.2,7.7-3.5,10.4c-2.4,2.7-5.5,4-9.4,4
		c-3.9,0-7-0.7-9.2-2.2c-2.2-1.4-4.7-3.8-7.3-7L29.6,84.3h4.8v62.3c0,4.8-1.2,8.5-3.7,11.2C28.2,160.4,24.6,161.7,19.8,161.7z"/>
	<path class="st0" d="M193.8,162c-12.3,0-23-2.6-32.2-7.9c-9.2-5.3-16.5-12.6-21.7-22c-5.2-9.4-7.8-20.4-7.8-32.9
		c0-9.5,1.5-18.1,4.4-25.7c2.9-7.6,7.1-14.2,12.6-19.6c5.5-5.4,12-9.7,19.6-12.7c7.6-3,15.9-4.6,25.1-4.6c12.3,0,23,2.6,32.3,7.8
		c9.3,5.2,16.5,12.5,21.6,21.8c5.1,9.3,7.7,20.3,7.7,32.9c0,9.4-1.5,17.9-4.4,25.6c-2.9,7.7-7.1,14.3-12.6,19.8
		c-5.4,5.5-12,9.8-19.5,12.8C211.4,160.5,203,162,193.8,162z M193.8,135.4c6.1,0,11.2-1.4,15.5-4.3c4.2-2.9,7.5-7,9.8-12.4
		c2.3-5.4,3.4-11.9,3.4-19.4c0-11.2-2.5-20-7.6-26.4c-5-6.4-12.1-9.5-21.2-9.5c-6,0-11.1,1.4-15.4,4.2c-4.3,2.8-7.6,6.9-10,12.3
		c-2.4,5.4-3.5,11.9-3.5,19.4c0,11.4,2.6,20.2,7.7,26.6C177.8,132.2,184.9,135.4,193.8,135.4z"/>
	<path class="st0" d="M319.4,162c-4.7,0-9.5-0.3-14.4-1c-4.9-0.7-9.7-1.7-14.2-2.9c-4.5-1.3-8.6-2.8-12.1-4.5
		c-3.1-1.5-5.3-3.5-6.5-6c-1.3-2.5-1.7-5.1-1.4-7.8c0.3-2.7,1.3-5.1,2.9-7.2c1.6-2.1,3.7-3.6,6.4-4.3c2.6-0.7,5.6-0.4,8.9,1.1
		c4.4,2.1,9.3,3.7,14.8,4.9c5.5,1.2,10.7,1.8,15.7,1.8c7.5,0,12.7-1.1,15.7-3.2c3-2.1,4.6-4.6,4.6-7.5c0-2.6-1.1-4.8-3.2-6.4
		c-2.1-1.6-5.9-3-11.3-4.1l-20.1-4.3c-11.1-2.4-19.3-6.5-24.7-12.1c-5.3-5.7-8-13-8-22.1c0-6.1,1.3-11.5,3.8-16.3
		c2.5-4.8,6-8.9,10.5-12.4s9.9-6.1,16.2-8.1c6.3-1.9,13.2-2.9,20.8-2.9c6,0,12,0.7,18.1,2.1c6.1,1.4,11.4,3.4,15.9,6
		c2.6,1.4,4.6,3.3,5.8,5.8c1.2,2.5,1.7,5,1.4,7.5c-0.3,2.5-1.2,4.8-2.8,6.7c-1.5,2-3.6,3.2-6.2,3.9c-2.6,0.6-5.6,0.2-9.2-1.3
		c-3.4-1.5-7.2-2.6-11.4-3.4c-4.1-0.8-8.1-1.2-12-1.2c-4.2,0-7.9,0.5-10.8,1.5c-3,1-5.2,2.5-6.8,4.3c-1.5,1.8-2.3,4-2.3,6.4
		c0,2.4,1,4.4,3.1,6.1c2.1,1.7,5.7,3,11,4l20,4.3c11.1,2.4,19.4,6.4,24.9,12c5.5,5.6,8.3,12.8,8.3,21.6c0,6-1.2,11.3-3.6,16.1
		c-2.4,4.8-5.9,8.9-10.4,12.4c-4.5,3.5-9.9,6.2-16.2,8C334.2,161.1,327.2,162,319.4,162z"/>
	<path class="st0" d="M430.7,161.7c-5.2,0-9.1-1.4-11.9-4.3s-4.1-6.8-4.1-11.9v-81h-27c-4.2,0-7.5-1.1-9.7-3.4
		c-2.2-2.3-3.4-5.5-3.4-9.6c0-4.1,1.1-7.3,3.4-9.5c2.2-2.2,5.5-3.3,9.7-3.3h85.7c4.4,0,7.6,1.1,9.8,3.3c2.2,2.2,3.3,5.3,3.3,9.5
		c0,4.2-1.1,7.5-3.3,9.7c-2.2,2.2-5.4,3.4-9.8,3.4h-27v81c0,5-1.3,9-4,11.9C439.7,160.2,435.8,161.7,430.7,161.7z"/>
	<path class="st0" d="M512.9,161.7c-5.2,0-9.1-1.4-11.9-4.3c-2.8-2.9-4.1-6.8-4.1-11.9V54.9c0-5.3,1.4-9.3,4.2-12
		c2.8-2.8,6.8-4.1,12-4.1h42.3c13.6,0,24.2,3.4,31.6,10.1c7.5,6.7,11.2,16,11.2,28c0,7.8-1.7,14.5-5,20.1c-3.3,5.6-8.2,9.9-14.6,13
		c-6.4,3-14.2,4.6-23.2,4.6l1.2-3.1h8.4c4.8,0,9.1,1.2,12.9,3.5c3.8,2.4,6.9,5.9,9.5,10.8l8.4,15.5c1.9,3.4,2.8,6.7,2.7,9.8
		c-0.2,3.1-1.4,5.7-3.6,7.7c-2.2,2.1-5.7,3.1-10.4,3.1c-4.4,0-7.9-0.9-10.8-2.8c-2.8-1.8-5.3-4.7-7.5-8.6l-15.7-29.1
		c-1.4-2.4-3.1-4.1-5.2-5.1c-2.1-1-4.6-1.5-7.3-1.5h-9.5v30.8c0,5-1.3,9-4,11.9C521.8,160.2,517.9,161.7,512.9,161.7z M528.5,92.4
		h21c6.1,0,10.7-1.2,13.8-3.6c3.2-2.4,4.7-6.1,4.7-11c0-5-1.6-8.8-4.7-11.2c-3.2-2.4-7.8-3.6-13.8-3.6h-21V92.4z"/>
	<path class="st0" d="M728.9,162c-13.4,0-24.9-2.6-34.6-7.8c-9.6-5.2-17.1-12.5-22.3-21.8c-5.2-9.3-7.8-20.4-7.8-33.1
		c0-9.5,1.5-18.1,4.4-25.7c2.9-7.6,7.2-14.2,12.8-19.6c5.6-5.4,12.4-9.7,20.4-12.7c8-3,17-4.6,27.1-4.6c5.2,0,10.6,0.6,16.3,1.9
		c5.7,1.3,10.7,3,15,5.3c3.3,1.7,5.6,3.9,6.8,6.6c1.2,2.7,1.6,5.4,1.2,8.3c-0.4,2.8-1.4,5.3-3,7.4c-1.6,2.1-3.7,3.6-6.2,4.4
		c-2.5,0.8-5.3,0.4-8.4-1.2c-3.3-1.7-6.7-3-10.1-3.7c-3.4-0.7-7-1.1-10.7-1.1c-7,0-12.9,1.3-17.6,4c-4.8,2.7-8.3,6.6-10.8,11.7
		c-2.4,5.1-3.6,11.4-3.6,19c0,7.6,1.2,13.9,3.6,19.1c2.4,5.2,6,9.1,10.8,11.8c4.8,2.7,10.6,4,17.6,4c3.2,0,6.5-0.3,9.9-1
		c3.4-0.7,6.7-1.8,10.1-3.4c3.3-1.5,6.4-1.9,9.1-1.3c2.8,0.6,5,2,6.6,4.1c1.7,2.1,2.7,4.5,3.2,7.2c0.5,2.7,0.1,5.4-1.1,8
		c-1.2,2.6-3.3,4.8-6.3,6.4c-4,2.4-9,4.3-14.9,5.8C740.5,161.3,734.7,162,728.9,162z"/>
	<path class="st0" d="M816,162c-11.1,0-19.3-3-24.4-8.9c-5.2-6-7.7-14.9-7.7-26.8V52.5c0-4.9,1.3-8.7,3.9-11.4c2.6-2.7,6.4-4,11.4-4
		c4.8,0,8.6,1.3,11.3,4c2.7,2.7,4,6.5,4,11.4v72.8c0,4.2,0.8,7.3,2.5,9.3c1.7,2,3.8,2.9,6.4,2.9c0.8,0,1.6-0.1,2.5-0.3
		s1.7-0.3,2.7-0.3c2.1-0.1,3.6,0.6,4.6,2.1c1,1.5,1.5,4.5,1.5,9.1c0,4-0.8,7-2.4,8.9c-1.6,2-4,3.3-7.2,4c-1,0.1-2.4,0.3-4.1,0.6
		C819.1,161.9,817.4,162,816,162z"/>
	<path class="st0" d="M859,61.6c-5.5,0-9.7-1.3-12.7-3.8c-3-2.5-4.5-6.1-4.5-10.8c0-4.8,1.5-8.5,4.5-11c3-2.5,7.2-3.8,12.7-3.8
		c5.4,0,9.6,1.3,12.6,3.8c3,2.5,4.5,6.2,4.5,11c0,4.7-1.5,8.3-4.5,10.8C868.5,60.3,864.3,61.6,859,61.6z M859,161.3
		c-5,0-8.9-1.4-11.4-4.2c-2.6-2.8-3.9-6.9-3.9-12.3V90.3c0-5.4,1.3-9.5,3.9-12.3c2.6-2.8,6.4-4.2,11.4-4.2c4.8,0,8.6,1.4,11.3,4.2
		c2.7,2.8,4,6.9,4,12.3v54.5c0,5.4-1.3,9.5-4,12.3C867.7,159.9,863.9,161.3,859,161.3z"/>
	<path class="st0" d="M938.1,162c-10.3,0-19.2-1.8-26.7-5.5c-7.5-3.7-13.3-8.8-17.3-15.5c-4-6.6-6-14.4-6-23.4
		c0-8.7,1.9-16.4,5.8-23c3.8-6.6,9.1-11.9,15.8-15.7c6.7-3.8,14.4-5.7,23-5.7c6.3,0,12,1,17.2,3.1c5.2,2.1,9.5,5,13.2,8.9
		c3.6,3.8,6.4,8.5,8.3,13.8c1.9,5.4,2.9,11.5,2.9,18.2c0,2.2-0.6,3.8-1.9,5c-1.3,1.1-3.2,1.7-5.8,1.7h-52.8v-14.6h38l-2.6,2.2
		c0-4.2-0.6-7.7-1.7-10.4c-1.1-2.7-2.8-4.7-5.1-6c-2.2-1.3-5-2-8.3-2c-3.6,0-6.7,0.8-9.3,2.5c-2.6,1.7-4.6,4.1-5.9,7.3
		c-1.3,3.2-2,7.2-2,12v1.4c0,8.3,1.8,14.1,5.4,17.5c3.6,3.4,9.2,5.2,16.8,5.2c2.5,0,5.4-0.3,8.7-0.9c3.3-0.6,6.4-1.4,9.4-2.6
		c3-1.1,5.6-1.3,7.7-0.6c2.2,0.7,3.9,2,5.1,3.7c1.2,1.7,1.9,3.8,2.1,6.1c0.2,2.4-0.3,4.6-1.5,6.6c-1.2,2.1-3.2,3.7-5.9,4.8
		c-3.9,1.8-8.1,3.2-12.6,4.2C947.2,161.5,942.7,162,938.1,162z"/>
	<path class="st0" d="M1002.7,161.7c-5,0-8.9-1.3-11.4-4s-3.9-6.5-3.9-11.4V89.1c0-4.9,1.3-8.7,3.9-11.4c2.6-2.7,6.3-4,11.1-4
		c4.7,0,8.3,1.3,10.9,4c2.6,2.7,3.9,6.5,3.9,11.4v8.1l-1.9-7.1c2.8-5.4,6.7-9.5,11.8-12.5c5.1-2.9,10.9-4.4,17.5-4.4
		c6.8,0,12.3,1.3,16.7,4c4.4,2.7,7.6,6.7,9.8,12c2.2,5.3,3.3,12.2,3.3,20.6v36.3c0,4.9-1.3,8.7-4,11.4c-2.6,2.7-6.4,4-11.4,4
		c-4.9,0-8.7-1.3-11.4-4c-2.6-2.7-4-6.5-4-11.4v-35.1c0-5-0.9-8.7-2.7-10.9c-1.8-2.2-4.4-3.4-7.8-3.4c-4.6,0-8.3,1.5-11,4.4
		c-2.8,2.9-4.1,6.9-4.1,11.8v33.2C1018.1,156.5,1013,161.7,1002.7,161.7z"/>
	<path class="st0" d="M1136,162c-8.5,0-15.5-1.3-21.2-4c-5.6-2.7-9.8-6.7-12.6-12s-4.1-12-4.1-20v-28h-5.7c-3.7,0-6.6-1-8.7-2.9
		c-2.1-1.9-3.2-4.7-3.2-8.3c0-3.8,1.1-6.6,3.2-8.5c2.1-1.9,5-2.8,8.7-2.8h5.7V64.5c0-4.9,1.3-8.7,4-11.4c2.6-2.7,6.4-4,11.4-4
		c4.9,0,8.7,1.3,11.4,4c2.6,2.7,4,6.5,4,11.4v10.8h14.1c3.7,0,6.5,0.9,8.6,2.8s3.1,4.7,3.1,8.5c0,3.6-1,6.3-3.1,8.3
		c-2.1,2-4.9,2.9-8.6,2.9h-14.1v27c0,4.2,1,7.4,2.9,9.4c1.9,2,5.1,3,9.5,3c1.7,0,3.3-0.2,4.8-0.5c1.5-0.3,2.9-0.6,4.1-0.7
		c1.8,0,3.4,0.6,4.6,1.8s1.8,3.9,1.8,8.2c0,3.4-0.5,6.3-1.6,8.7c-1.1,2.4-3,4-5.6,5.1c-1.7,0.7-3.9,1.2-6.6,1.6
		C1140,161.8,1137.8,162,1136,162z"/>
</g>
</svg>
